# xmcd CD database file
#
# Track frame offsets:
#	150
#	17162
#	38780
#	53665
#	74037
#	91890
#	109992
#	128715
#	147575
#	164925
#
# Disc length: 2430 seconds
#
# Revision: 0
# Processed by: cddbd v1.5.1PL0 Copyright (c) Steve Scherf et al.
# Submitted via: CDex 1.50beta8
#
DISCID=96097c0a
DTITLE=BUNGEE JUMP FESTIVAL - more vegetable
DYEAR=1900
DGENRE=Rock
TTITLE0=ステレオの前では
TTITLE1=僕はボクサー
TTITLE2=風俗外
TTITLE3=阿佐ヶ谷ホームシックブルース
TTITLE4=22
TTITLE5=いいじゃないか
TTITLE6=向こう側へのドア
TTITLE7=星空になりたい
TTITLE8=B.J.F IS DEAD
TTITLE9=MY NAME IS NOTHING
EXTD=
EXTT0=
EXTT1=
EXTT2=
EXTT3=
EXTT4=
EXTT5=
EXTT6=
EXTT7=
EXTT8=
EXTT9=
PLAYORDER=
